<?xml version="1.0" encoding="UTF-8" standalone="no"?>
<!-- Created with Inkscape (http://www.inkscape.org/) -->

<svg
   width="228.78857"
   height="111.30584"
   viewBox="0 0 60.533646 29.449669"
   version="1.1"
   id="svg5"
   sodipodi:docname="face_minimal.svg"
   inkscape:version="1.2.2 (732a01da63, 2022-12-09)"
   xmlns:inkscape="http://www.inkscape.org/namespaces/inkscape"
   xmlns:sodipodi="http://sodipodi.sourceforge.net/DTD/sodipodi-0.dtd"
   xmlns="http://www.w3.org/2000/svg"
   xmlns:svg="http://www.w3.org/2000/svg">
  <sodipodi:namedview
     id="namedview7"
     pagecolor="#ffffff"
     bordercolor="#666666"
     borderopacity="1.0"
     inkscape:pageshadow="2"
     inkscape:pageopacity="0.0"
     inkscape:pagecheckerboard="0"
     inkscape:document-units="px"
     showgrid="false"
     showguides="false"
     inkscape:guide-bbox="true"
     inkscape:zoom="5.6568544"
     inkscape:cx="109.33638"
     inkscape:cy="54.623997"
     inkscape:window-width="2560"
     inkscape:window-height="1009"
     inkscape:window-x="1912"
     inkscape:window-y="-8"
     inkscape:window-maximized="1"
     inkscape:current-layer="svg5"
     units="px"
     height="800px"
     fit-margin-top="0"
     fit-margin-left="0"
     fit-margin-right="0"
     fit-margin-bottom="0"
     inkscape:showpageshadow="2"
     inkscape:deskcolor="#d1d1d1">
    <sodipodi:guide
       position="157.51719,189.23896"
       orientation="-1,0"
       id="guide9844"
       inkscape:label=""
       inkscape:locked="false"
       inkscape:color="rgb(0,0,255)" />
  </sodipodi:namedview>
  <defs
     id="defs2">
    <style
       id="style26544">
      .cls-1 {
        fill: #2c2c2c;
      }

      .cls-2 {
        fill: #222;
      }

      .cls-3 {
        fill: #7cb2e8;
      }

      .cls-4 {
        fill: #f66;
      }

      .cls-5 {
        fill: #ff69f8;
      }

      .cls-6 {
        fill: #40e2a0;
      }

      .cls-7 {
        fill: #d3d3d3;
      }

      .cls-8 {
        fill: #ddd;
      }

      .cls-9 {
        fill: #834d17;
      }

      .cls-10 {
        fill: #099;
      }

      .cls-11 {
        fill: #009607;
      }

      .cls-12 {
        fill: #bf1d5f;
      }
    </style>
    <style
       id="style2345">
      .cls-1 {
        fill: #c1272d;
      }

      .cls-2, .cls-4 {
        isolation: isolate;
        opacity: 0.25;
      }

      .cls-3 {
        fill: #3ed8d2;
      }

      .cls-4 {
        fill: #fff;
      }
    </style>
    <style
       id="style3670">
      .cls-1 {
        fill: none;
      }

      .cls-2 {
        fill: #b3b3b3;
      }

      .cls-3 {
        fill: #fff;
      }

      .cls-21, .cls-4 {
        fill: #e6e6e6;
      }

      .cls-5 {
        fill: #cfcfcf;
      }

      .cls-6 {
        fill: #121212;
      }

      .cls-7 {
        fill: #080808;
      }

      .cls-8 {
        opacity: 0.12;
      }

      .cls-9 {
        fill: url(#SVGID_5_);
      }

      .cls-10 {
        fill: #1f1f1f;
      }

      .cls-11 {
        fill: #9e1f20;
      }

      .cls-12 {
        fill: #c1272d;
      }

      .cls-13 {
        fill: #2c2c2c;
      }

      .cls-14 {
        fill: #222;
      }

      .cls-15 {
        fill: #f66;
      }

      .cls-16 {
        fill: #7cb2e8;
      }

      .cls-17 {
        fill: #ff69f8;
      }

      .cls-18 {
        fill: #40e2a0;
      }

      .cls-19 {
        fill: #050505;
        stroke: #000;
        stroke-miterlimit: 10;
        stroke-width: 2px;
      }

      .cls-20 {
        fill: #f2f2f2;
      }

      .cls-21, .cls-22, .cls-23, .cls-24, .cls-25 {
        isolation: isolate;
      }

      .cls-21 {
        opacity: 0.1;
      }

      .cls-22, .cls-24, .cls-29 {
        opacity: 0.08;
      }

      .cls-22 {
        fill: url(#SVGID_6_);
      }

      .cls-23 {
        opacity: 0.22;
      }

      .cls-24 {
        fill: url(#SVGID_7_);
      }

      .cls-25 {
        opacity: 0.25;
      }

      .cls-26 {
        fill: #0b0b0f;
      }

      .cls-27 {
        opacity: 0.2;
      }

      .cls-28 {
        fill: url(#SVGID_8_);
      }
    </style>
    <pattern
       id="SVGID_5_"
       data-name="SVGID 5 "
       width="71"
       height="71"
       patternTransform="translate(-14969.26 1511.28) scale(0.1)"
       patternUnits="userSpaceOnUse"
       viewBox="0 0 71 71">
      <rect
         class="cls-1"
         width="71"
         height="71"
         id="rect3672" />
      <g
         id="g3682">
        <polygon
           class="cls-1"
           points="0 0 71 0 71 71 0 71 0 0"
           id="polygon3674" />
        <g
           id="g3680">
          <polygon
             class="cls-1"
             points="0 0 71 0 71 71 0 71 0 0"
             id="polygon3676" />
          <path
             class="cls-2"
             d="M41.8,35.5a6.3,6.3,0,1,1-6.3-6.3A6.27,6.27,0,0,1,41.8,35.5Z"
             id="path3678" />
        </g>
      </g>
    </pattern>
    <pattern
       id="SVGID_6_"
       data-name="SVGID 6 "
       width="40"
       height="103"
       patternTransform="translate(-11177.56 6671.22) rotate(16) scale(0.34)"
       patternUnits="userSpaceOnUse"
       viewBox="0 0 40 103">
      <rect
         class="cls-1"
         width="40"
         height="103"
         id="rect3685" />
      <g
         id="g3723">
        <polygon
           class="cls-1"
           points="0 0 40 0 40 103 0 103 0 0"
           id="polygon3687" />
        <g
           id="g3721">
          <polygon
             class="cls-1"
             points="0 0 40 0 40 103 0 103 0 0"
             id="polygon3689" />
          <polygon
             points="34.5 231.8 37.5 231.8 37.5 77.3 34.5 77.3 34.5 231.8"
             id="polygon3691" />
          <polygon
             points="26.5 231.8 29.5 231.8 29.5 77.3 26.5 77.3 26.5 231.8"
             id="polygon3693" />
          <polygon
             points="18.5 231.8 21.5 231.8 21.5 77.3 18.5 77.3 18.5 231.8"
             id="polygon3695" />
          <polygon
             points="10.5 231.8 13.5 231.8 13.5 77.3 10.5 77.3 10.5 231.8"
             id="polygon3697" />
          <polygon
             points="2.5 231.8 5.5 231.8 5.5 77.3 2.5 77.3 2.5 231.8"
             id="polygon3699" />
          <polygon
             points="34.5 128.8 37.5 128.8 37.5 -25.7 34.5 -25.7 34.5 128.8"
             id="polygon3701" />
          <polygon
             points="26.5 128.8 29.5 128.8 29.5 -25.7 26.5 -25.7 26.5 128.8"
             id="polygon3703" />
          <polygon
             points="18.5 128.8 21.5 128.8 21.5 -25.7 18.5 -25.7 18.5 128.8"
             id="polygon3705" />
          <polygon
             points="10.5 128.8 13.5 128.8 13.5 -25.7 10.5 -25.7 10.5 128.8"
             id="polygon3707" />
          <polygon
             points="2.5 128.8 5.5 128.8 5.5 -25.7 2.5 -25.7 2.5 128.8"
             id="polygon3709" />
          <polygon
             points="34.5 25.8 37.5 25.8 37.5 -128.7 34.5 -128.7 34.5 25.8"
             id="polygon3711" />
          <polygon
             points="26.5 25.8 29.5 25.8 29.5 -128.7 26.5 -128.7 26.5 25.8"
             id="polygon3713" />
          <polygon
             points="18.5 25.8 21.5 25.8 21.5 -128.7 18.5 -128.7 18.5 25.8"
             id="polygon3715" />
          <polygon
             points="10.5 25.8 13.5 25.8 13.5 -128.7 10.5 -128.7 10.5 25.8"
             id="polygon3717" />
          <polygon
             points="2.5 25.8 5.5 25.8 5.5 -128.7 2.5 -128.7 2.5 25.8"
             id="polygon3719" />
        </g>
      </g>
    </pattern>
    <pattern
       id="SVGID_7_"
       data-name="SVGID 7 "
       width="40"
       height="103"
       patternTransform="matrix(-0.33, 0.09, 0.09, 0.33, -22107.61, 6714.99)"
       patternUnits="userSpaceOnUse"
       viewBox="0 0 40 103">
      <rect
         class="cls-1"
         width="40"
         height="103"
         id="rect3726" />
      <g
         id="g3764">
        <polygon
           class="cls-1"
           points="0 0 40 0 40 103 0 103 0 0"
           id="polygon3728" />
        <g
           id="g3762">
          <polygon
             class="cls-1"
             points="0 0 40 0 40 103 0 103 0 0"
             id="polygon3730" />
          <polygon
             points="34.5 231.8 37.5 231.8 37.5 77.3 34.5 77.3 34.5 231.8"
             id="polygon3732" />
          <polygon
             points="26.5 231.8 29.5 231.8 29.5 77.3 26.5 77.3 26.5 231.8"
             id="polygon3734" />
          <polygon
             points="18.5 231.8 21.5 231.8 21.5 77.3 18.5 77.3 18.5 231.8"
             id="polygon3736" />
          <polygon
             points="10.5 231.8 13.5 231.8 13.5 77.3 10.5 77.3 10.5 231.8"
             id="polygon3738" />
          <polygon
             points="2.5 231.8 5.5 231.8 5.5 77.3 2.5 77.3 2.5 231.8"
             id="polygon3740" />
          <polygon
             points="34.5 128.8 37.5 128.8 37.5 -25.7 34.5 -25.7 34.5 128.8"
             id="polygon3742" />
          <polygon
             points="26.5 128.8 29.5 128.8 29.5 -25.7 26.5 -25.7 26.5 128.8"
             id="polygon3744" />
          <polygon
             points="18.5 128.8 21.5 128.8 21.5 -25.7 18.5 -25.7 18.5 128.8"
             id="polygon3746" />
          <polygon
             points="10.5 128.8 13.5 128.8 13.5 -25.7 10.5 -25.7 10.5 128.8"
             id="polygon3748" />
          <polygon
             points="2.5 128.8 5.5 128.8 5.5 -25.7 2.5 -25.7 2.5 128.8"
             id="polygon3750" />
          <polygon
             points="34.5 25.8 37.5 25.8 37.5 -128.7 34.5 -128.7 34.5 25.8"
             id="polygon3752" />
          <polygon
             points="26.5 25.8 29.5 25.8 29.5 -128.7 26.5 -128.7 26.5 25.8"
             id="polygon3754" />
          <polygon
             points="18.5 25.8 21.5 25.8 21.5 -128.7 18.5 -128.7 18.5 25.8"
             id="polygon3756" />
          <polygon
             points="10.5 25.8 13.5 25.8 13.5 -128.7 10.5 -128.7 10.5 25.8"
             id="polygon3758" />
          <polygon
             points="2.5 25.8 5.5 25.8 5.5 -128.7 2.5 -128.7 2.5 25.8"
             id="polygon3760" />
        </g>
      </g>
    </pattern>
    <pattern
       id="SVGID_8_"
       data-name="SVGID 8 "
       width="71"
       height="71"
       patternTransform="translate(-14969.26 1511.28) scale(0.1)"
       patternUnits="userSpaceOnUse"
       viewBox="0 0 71 71">
      <rect
         class="cls-1"
         width="71"
         height="71"
         id="rect3767" />
      <g
         id="g3777">
        <polygon
           class="cls-1"
           points="0 0 71 0 71 71 0 71 0 0"
           id="polygon3769" />
        <g
           id="g3775">
          <polygon
             class="cls-1"
             points="0 0 71 0 71 71 0 71 0 0"
             id="polygon3771" />
          <path
             class="cls-3"
             d="M41.8,35.5a6.3,6.3,0,1,1-6.3-6.3A6.27,6.27,0,0,1,41.8,35.5Z"
             id="path3773" />
        </g>
      </g>
    </pattern>
    <style
       id="style937">
      .cls-1 {
        fill: none;
      }

      .cls-2 {
        fill: #b3b3b3;
      }

      .cls-3 {
        fill: #fff;
      }

      .cls-21, .cls-4 {
        fill: #e6e6e6;
      }

      .cls-5 {
        fill: #cfcfcf;
      }

      .cls-6 {
        fill: #121212;
      }

      .cls-7 {
        fill: #080808;
      }

      .cls-8 {
        opacity: 0.12;
      }

      .cls-9 {
        fill: url(#SVGID_5_);
      }

      .cls-10 {
        fill: #1f1f1f;
      }

      .cls-11 {
        fill: #9e1f20;
      }

      .cls-12 {
        fill: #c1272d;
      }

      .cls-13 {
        fill: #2c2c2c;
      }

      .cls-14 {
        fill: #222;
      }

      .cls-15 {
        fill: #f66;
      }

      .cls-16 {
        fill: #7cb2e8;
      }

      .cls-17 {
        fill: #ff69f8;
      }

      .cls-18 {
        fill: #40e2a0;
      }

      .cls-19 {
        fill: #050505;
        stroke: #000;
        stroke-miterlimit: 10;
        stroke-width: 2px;
      }

      .cls-20 {
        fill: #f2f2f2;
      }

      .cls-21, .cls-22, .cls-23, .cls-24, .cls-25 {
        isolation: isolate;
      }

      .cls-21 {
        opacity: 0.1;
      }

      .cls-22, .cls-24, .cls-29 {
        opacity: 0.08;
      }

      .cls-22 {
        fill: url(#SVGID_6_);
      }

      .cls-23 {
        opacity: 0.22;
      }

      .cls-24 {
        fill: url(#SVGID_7_);
      }

      .cls-25 {
        opacity: 0.25;
      }

      .cls-26 {
        fill: #0b0b0f;
      }

      .cls-27 {
        opacity: 0.2;
      }

      .cls-28 {
        fill: url(#SVGID_8_);
      }
    </style>
    <pattern
       id="SVGID_5_-3"
       data-name="SVGID 5 "
       width="71"
       height="71"
       patternTransform="translate(-14969.26 1511.28) scale(0.1)"
       patternUnits="userSpaceOnUse"
       viewBox="0 0 71 71">
      <rect
         class="cls-1"
         width="71"
         height="71"
         id="rect939" />
      <g
         id="g949">
        <polygon
           class="cls-1"
           points="0 0 71 0 71 71 0 71 0 0"
           id="polygon941" />
        <g
           id="g947">
          <polygon
             class="cls-1"
             points="0 0 71 0 71 71 0 71 0 0"
             id="polygon943" />
          <path
             class="cls-2"
             d="M41.8,35.5a6.3,6.3,0,1,1-6.3-6.3A6.27,6.27,0,0,1,41.8,35.5Z"
             id="path945" />
        </g>
      </g>
    </pattern>
    <pattern
       id="SVGID_6_-2"
       data-name="SVGID 6 "
       width="40"
       height="103"
       patternTransform="translate(-11177.56 6671.22) rotate(16) scale(0.34)"
       patternUnits="userSpaceOnUse"
       viewBox="0 0 40 103">
      <rect
         class="cls-1"
         width="40"
         height="103"
         id="rect952" />
      <g
         id="g990">
        <polygon
           class="cls-1"
           points="0 0 40 0 40 103 0 103 0 0"
           id="polygon954" />
        <g
           id="g988">
          <polygon
             class="cls-1"
             points="0 0 40 0 40 103 0 103 0 0"
             id="polygon956" />
          <polygon
             points="34.5 231.8 37.5 231.8 37.5 77.3 34.5 77.3 34.5 231.8"
             id="polygon958" />
          <polygon
             points="26.5 231.8 29.5 231.8 29.5 77.3 26.5 77.3 26.5 231.8"
             id="polygon960" />
          <polygon
             points="18.5 231.8 21.5 231.8 21.5 77.3 18.5 77.3 18.5 231.8"
             id="polygon962" />
          <polygon
             points="10.5 231.8 13.5 231.8 13.5 77.3 10.5 77.3 10.5 231.8"
             id="polygon964" />
          <polygon
             points="2.5 231.8 5.5 231.8 5.5 77.3 2.5 77.3 2.5 231.8"
             id="polygon966" />
          <polygon
             points="34.5 128.8 37.5 128.8 37.5 -25.7 34.5 -25.7 34.5 128.8"
             id="polygon968" />
          <polygon
             points="26.5 128.8 29.5 128.8 29.5 -25.7 26.5 -25.7 26.5 128.8"
             id="polygon970" />
          <polygon
             points="18.5 128.8 21.5 128.8 21.5 -25.7 18.5 -25.7 18.5 128.8"
             id="polygon972" />
          <polygon
             points="10.5 128.8 13.5 128.8 13.5 -25.7 10.5 -25.7 10.5 128.8"
             id="polygon974" />
          <polygon
             points="2.5 128.8 5.5 128.8 5.5 -25.7 2.5 -25.7 2.5 128.8"
             id="polygon976" />
          <polygon
             points="34.5 25.8 37.5 25.8 37.5 -128.7 34.5 -128.7 34.5 25.8"
             id="polygon978" />
          <polygon
             points="26.5 25.8 29.5 25.8 29.5 -128.7 26.5 -128.7 26.5 25.8"
             id="polygon980" />
          <polygon
             points="18.5 25.8 21.5 25.8 21.5 -128.7 18.5 -128.7 18.5 25.8"
             id="polygon982" />
          <polygon
             points="10.5 25.8 13.5 25.8 13.5 -128.7 10.5 -128.7 10.5 25.8"
             id="polygon984" />
          <polygon
             points="2.5 25.8 5.5 25.8 5.5 -128.7 2.5 -128.7 2.5 25.8"
             id="polygon986" />
        </g>
      </g>
    </pattern>
    <pattern
       id="SVGID_7_-1"
       data-name="SVGID 7 "
       width="40"
       height="103"
       patternTransform="matrix(-0.33, 0.09, 0.09, 0.33, -22107.61, 6714.99)"
       patternUnits="userSpaceOnUse"
       viewBox="0 0 40 103">
      <rect
         class="cls-1"
         width="40"
         height="103"
         id="rect993" />
      <g
         id="g1031">
        <polygon
           class="cls-1"
           points="0 0 40 0 40 103 0 103 0 0"
           id="polygon995" />
        <g
           id="g1029">
          <polygon
             class="cls-1"
             points="0 0 40 0 40 103 0 103 0 0"
             id="polygon997" />
          <polygon
             points="34.5 231.8 37.5 231.8 37.5 77.3 34.5 77.3 34.5 231.8"
             id="polygon999" />
          <polygon
             points="26.5 231.8 29.5 231.8 29.5 77.3 26.5 77.3 26.5 231.8"
             id="polygon1001" />
          <polygon
             points="18.5 231.8 21.5 231.8 21.5 77.3 18.5 77.3 18.5 231.8"
             id="polygon1003" />
          <polygon
             points="10.5 231.8 13.5 231.8 13.5 77.3 10.5 77.3 10.5 231.8"
             id="polygon1005" />
          <polygon
             points="2.5 231.8 5.5 231.8 5.5 77.3 2.5 77.3 2.5 231.8"
             id="polygon1007" />
          <polygon
             points="34.5 128.8 37.5 128.8 37.5 -25.7 34.5 -25.7 34.5 128.8"
             id="polygon1009" />
          <polygon
             points="26.5 128.8 29.5 128.8 29.5 -25.7 26.5 -25.7 26.5 128.8"
             id="polygon1011" />
          <polygon
             points="18.5 128.8 21.5 128.8 21.5 -25.7 18.5 -25.7 18.5 128.8"
             id="polygon1013" />
          <polygon
             points="10.5 128.8 13.5 128.8 13.5 -25.7 10.5 -25.7 10.5 128.8"
             id="polygon1015" />
          <polygon
             points="2.5 128.8 5.5 128.8 5.5 -25.7 2.5 -25.7 2.5 128.8"
             id="polygon1017" />
          <polygon
             points="34.5 25.8 37.5 25.8 37.5 -128.7 34.5 -128.7 34.5 25.8"
             id="polygon1019" />
          <polygon
             points="26.5 25.8 29.5 25.8 29.5 -128.7 26.5 -128.7 26.5 25.8"
             id="polygon1021" />
          <polygon
             points="18.5 25.8 21.5 25.8 21.5 -128.7 18.5 -128.7 18.5 25.8"
             id="polygon1023" />
          <polygon
             points="10.5 25.8 13.5 25.8 13.5 -128.7 10.5 -128.7 10.5 25.8"
             id="polygon1025" />
          <polygon
             points="2.5 25.8 5.5 25.8 5.5 -128.7 2.5 -128.7 2.5 25.8"
             id="polygon1027" />
        </g>
      </g>
    </pattern>
    <pattern
       id="SVGID_8_-9"
       data-name="SVGID 8 "
       width="71"
       height="71"
       patternTransform="translate(-14969.26 1511.28) scale(0.1)"
       patternUnits="userSpaceOnUse"
       viewBox="0 0 71 71">
      <rect
         class="cls-1"
         width="71"
         height="71"
         id="rect1034" />
      <g
         id="g1044">
        <polygon
           class="cls-1"
           points="0 0 71 0 71 71 0 71 0 0"
           id="polygon1036" />
        <g
           id="g1042">
          <polygon
             class="cls-1"
             points="0 0 71 0 71 71 0 71 0 0"
             id="polygon1038" />
          <path
             class="cls-3"
             d="M41.8,35.5a6.3,6.3,0,1,1-6.3-6.3A6.27,6.27,0,0,1,41.8,35.5Z"
             id="path1040" />
        </g>
      </g>
    </pattern>
    <style
       id="style1139">
      .cls-1 {
        fill: #2c2c2c;
      }

      .cls-2 {
        fill: #222;
      }

      .cls-3 {
        fill: #7cb2e8;
      }

      .cls-4 {
        fill: #f66;
      }

      .cls-5 {
        fill: #ff69f8;
      }

      .cls-6 {
        fill: #40e2a0;
      }

      .cls-7 {
        fill: #d3d3d3;
      }

      .cls-8 {
        fill: #ddd;
      }

      .cls-9 {
        fill: #834d17;
      }

      .cls-10 {
        fill: #099;
      }

      .cls-11 {
        fill: #009607;
      }

      .cls-12 {
        fill: #bf1d5f;
      }
    </style>
  </defs>
  <rect
     style="display:inline;fill:#cccccc;stroke-width:0.264583;stroke-opacity:0.5"
     id="rect453"
     width="93.993225"
     height="48.947918"
     x="-17.256039"
     y="-8.7664375"
     inkscape:label="Background" />
  <g
     id="g26626"
     inkscape:label="Y - Pressed"
     transform="matrix(0.26813374,0,0,0.26813374,0.71300706,-1.0630978)"
     style="display:inline">
    <path
       class="cls-7"
       d="M 196.8,111.3 A 26.3,26.3 0 1 1 223.1,85 26.33,26.33 0 0 1 196.8,111.3 Z"
       id="path26618"
       style="display:inline;fill:#ffffff;fill-opacity:1"
       inkscape:label="Button" />
    <text
       xml:space="preserve"
       style="font-size:34.4539px;font-family:'Google Sans';-inkscape-font-specification:'Google Sans';display:inline;fill:#ffffff;stroke-width:1.61502;stroke-opacity:0.5"
       x="186.11929"
       y="97.334496"
       id="text1120"
       inkscape:label="Y"><tspan
         sodipodi:role="line"
         id="tspan1118"
         style="fill:#4d4d4d;fill-opacity:1;stroke-width:1.61502"
         x="186.11929"
         y="97.334496">Y</tspan></text>
  </g>
  <g
     id="g3252"
     inkscape:label="Y"
     transform="matrix(0.26813375,0,0,0.26813375,0.71300509,-15.73945)"
     style="display:inline">
    <path
       class="cls-7"
       d="M 196.8,111.3 A 26.3,26.3 0 1 1 223.1,85 26.33,26.33 0 0 1 196.8,111.3 Z"
       id="path3246"
       style="display:inline;fill:#4d4d4d;fill-opacity:1"
       inkscape:label="Button" />
    <text
       xml:space="preserve"
       style="font-size:34.4539px;font-family:'Google Sans';-inkscape-font-specification:'Google Sans';display:inline;fill:#ffffff;stroke-width:1.61502;stroke-opacity:0.5"
       x="186.11929"
       y="97.334496"
       id="text3250"
       inkscape:label="Y"><tspan
         sodipodi:role="line"
         id="tspan3248"
         style="fill:#ffffff;stroke-width:1.61502"
         x="186.11929"
         y="97.334496">Y</tspan></text>
  </g>
  <g
     id="g3080"
     inkscape:label="X - Pressed"
     transform="matrix(0.26813375,0,0,0.26813375,0.38596107,-15.712637)"
     style="display:inline">
    <path
       class="cls-7"
       d="m 140.3,111.2 a 26.3,26.3 0 1 1 26.3,-26.3 26.33,26.33 0 0 1 -26.3,26.3 z"
       id="path3074"
       inkscape:label="Button"
       style="fill:#4d4d4d;fill-opacity:1" />
    <text
       xml:space="preserve"
       style="font-size:34.4539px;font-family:'Google Sans';-inkscape-font-specification:'Google Sans';fill:#ffffff;stroke-width:1.61502;stroke-opacity:0.5"
       x="128.86131"
       y="97.234497"
       id="text3078"
       inkscape:label="X"><tspan
         sodipodi:role="line"
         id="tspan3076"
         style="fill:#ffffff;stroke-width:1.61502"
         x="128.86131"
         y="97.234497">X</tspan></text>
  </g>
  <g
     id="g26616"
     inkscape:label="X"
     transform="matrix(0.26813374,0,0,0.26813374,0.38596106,-1.0362848)"
     style="display:inline">
    <path
       class="cls-7"
       d="m 140.3,111.2 a 26.3,26.3 0 1 1 26.3,-26.3 26.33,26.33 0 0 1 -26.3,26.3 z"
       id="path26608"
       inkscape:label="Button"
       style="fill:#ffffff;fill-opacity:1" />
    <text
       xml:space="preserve"
       style="font-size:34.4539px;font-family:'Google Sans';-inkscape-font-specification:'Google Sans';fill:#4d4d4d;fill-opacity:1;stroke-width:1.61502;stroke-opacity:0.5"
       x="128.86131"
       y="97.234497"
       id="text1116"
       inkscape:label="X"><tspan
         sodipodi:role="line"
         id="tspan1114"
         style="fill:#4d4d4d;fill-opacity:1;stroke-width:1.61502"
         x="128.86131"
         y="97.234497">X</tspan></text>
  </g>
  <g
     id="g2809"
     inkscape:label="B - Pressed"
     transform="matrix(0.26813375,0,0,0.26813375,0.05891282,-1.0362855)"
     style="display:inline">
    <path
       class="cls-7"
       d="M 83.8,111.2 A 26.3,26.3 0 1 1 110.1,84.9 26.33,26.33 0 0 1 83.8,111.2 Z"
       id="path2801"
       inkscape:label="Button"
       style="fill:#ffffff;fill-opacity:1" />
    <text
       xml:space="preserve"
       style="font-size:34.4539px;font-family:'Google Sans';-inkscape-font-specification:'Google Sans';display:inline;fill:#ffffff;stroke-width:1.61502;stroke-opacity:0.5"
       x="72.257942"
       y="97.234497"
       id="text2807"
       inkscape:label="B"><tspan
         sodipodi:role="line"
         id="tspan2803"
         style="fill:#4d4d4d;fill-opacity:1;stroke-width:1.61502"
         x="72.257942"
         y="97.234497">B</tspan><tspan
         sodipodi:role="line"
         style="fill:#ffffff;stroke-width:1.61502"
         x="72.257942"
         y="140.30186"
         id="tspan2805" /></text>
  </g>
  <g
     id="g26606"
     inkscape:label="B"
     transform="matrix(0.26813374,0,0,0.26813374,0.05891366,-15.712637)"
     style="display:inline">
    <path
       class="cls-7"
       d="M 83.8,111.2 A 26.3,26.3 0 1 1 110.1,84.9 26.33,26.33 0 0 1 83.8,111.2 Z"
       id="path26598"
       inkscape:label="Button"
       style="fill:#4d4d4d;fill-opacity:1" />
    <text
       xml:space="preserve"
       style="font-size:34.4539px;font-family:'Google Sans';-inkscape-font-specification:'Google Sans';display:inline;fill:#ffffff;stroke-width:1.61502;stroke-opacity:0.5"
       x="72.257942"
       y="97.234497"
       id="text1112"
       inkscape:label="B"><tspan
         sodipodi:role="line"
         id="tspan1110"
         style="fill:#ffffff;stroke-width:1.61502"
         x="72.257942"
         y="97.234497">B</tspan><tspan
         sodipodi:role="line"
         style="fill:#ffffff;stroke-width:1.61502"
         x="72.257942"
         y="140.30186"
         id="tspan1522" /></text>
  </g>
  <g
     id="g26596"
     transform="matrix(0.26813374,0,0,0.26813374,-0.26813374,-1.0899117)"
     inkscape:label="A - Pressed"
     style="display:inline">
    <path
       class="cls-7"
       d="M 27.3,111.4 A 26.3,26.3 0 1 1 53.6,85.1 26.33,26.33 0 0 1 27.3,111.4 Z"
       id="path26588"
       style="display:inline;fill:#ffffff;fill-opacity:1"
       inkscape:label="Button" />
    <text
       xml:space="preserve"
       style="font-size:34.4539px;font-family:'Google Sans';-inkscape-font-specification:'Google Sans';fill:#4d4d4d;fill-opacity:1;stroke-width:1.61502;stroke-opacity:0.5"
       x="15.310043"
       y="97.434494"
       id="text964"
       inkscape:label="A"><tspan
         sodipodi:role="line"
         id="tspan962"
         style="fill:#4d4d4d;fill-opacity:1;stroke-width:1.61502"
         x="15.310043"
         y="97.434494">A</tspan></text>
  </g>
  <g
     id="g1971"
     transform="matrix(0.26813374,0,0,0.26813374,-0.26813371,-15.766264)"
     inkscape:label="A"
     style="display:inline">
    <path
       class="cls-7"
       d="M 27.3,111.4 A 26.3,26.3 0 1 1 53.6,85.1 26.33,26.33 0 0 1 27.3,111.4 Z"
       id="path1965"
       style="display:inline;fill:#4d4d4d;fill-opacity:1"
       inkscape:label="Button" />
    <text
       xml:space="preserve"
       style="font-size:34.4539px;font-family:'Google Sans';-inkscape-font-specification:'Google Sans';fill:#ffffff;stroke-width:1.61502;stroke-opacity:0.5"
       x="15.310043"
       y="97.434494"
       id="text1969"
       inkscape:label="A"><tspan
         sodipodi:role="line"
         id="tspan1967"
         style="fill:#ffffff;stroke-width:1.61502"
         x="15.310043"
         y="97.434494">A</tspan></text>
  </g>
</svg>
